<mxfile host="Electron" agent="Mozilla/5.0 (Windows NT 10.0; Win64; x64) AppleWebKit/537.36 (KHTML, like Gecko) draw.io/26.2.2 Chrome/134.0.6998.178 Electron/35.1.2 Safari/537.36" version="26.2.2">
  <diagram name="Страница — 1" id="duhbjh2YA_87CtFEeCCL">
    <mxGraphModel dx="680" dy="404" grid="1" gridSize="10" guides="1" tooltips="1" connect="1" arrows="1" fold="1" page="1" pageScale="1" pageWidth="827" pageHeight="1169" math="0" shadow="0">
      <root>
        <mxCell id="0" />
        <mxCell id="1" parent="0" />
        <mxCell id="utmpWp_Bq-xcvvFRlT2Y-2" value="Backennd" style="verticalAlign=top;align=left;spacingTop=8;spacingLeft=2;spacingRight=12;shape=cube;size=10;direction=south;fontStyle=4;html=1;whiteSpace=wrap;" vertex="1" parent="1">
          <mxGeometry x="335" y="400" width="110" height="80" as="geometry" />
        </mxCell>
        <mxCell id="utmpWp_Bq-xcvvFRlT2Y-3" value="Frontend" style="verticalAlign=top;align=left;spacingTop=8;spacingLeft=2;spacingRight=12;shape=cube;size=10;direction=south;fontStyle=4;html=1;whiteSpace=wrap;" vertex="1" parent="1">
          <mxGeometry x="335" y="230" width="110" height="80" as="geometry" />
        </mxCell>
        <mxCell id="utmpWp_Bq-xcvvFRlT2Y-4" value="DB" style="strokeWidth=2;html=1;shape=mxgraph.flowchart.database;whiteSpace=wrap;" vertex="1" parent="1">
          <mxGeometry x="360" y="532.5" width="60" height="60" as="geometry" />
        </mxCell>
        <mxCell id="utmpWp_Bq-xcvvFRlT2Y-5" style="edgeStyle=orthogonalEdgeStyle;rounded=0;orthogonalLoop=1;jettySize=auto;html=1;entryX=0;entryY=0;entryDx=80;entryDy=60;entryPerimeter=0;" edge="1" parent="1" source="utmpWp_Bq-xcvvFRlT2Y-4" target="utmpWp_Bq-xcvvFRlT2Y-2">
          <mxGeometry relative="1" as="geometry" />
        </mxCell>
        <mxCell id="utmpWp_Bq-xcvvFRlT2Y-7" value="API" style="rounded=0;whiteSpace=wrap;html=1;" vertex="1" parent="1">
          <mxGeometry x="350" y="370" width="80" height="30" as="geometry" />
        </mxCell>
        <mxCell id="utmpWp_Bq-xcvvFRlT2Y-9" style="edgeStyle=orthogonalEdgeStyle;rounded=0;orthogonalLoop=1;jettySize=auto;html=1;entryX=0;entryY=0;entryDx=80;entryDy=60;entryPerimeter=0;" edge="1" parent="1" source="utmpWp_Bq-xcvvFRlT2Y-7" target="utmpWp_Bq-xcvvFRlT2Y-3">
          <mxGeometry relative="1" as="geometry" />
        </mxCell>
        <mxCell id="utmpWp_Bq-xcvvFRlT2Y-10" value="Tools:&lt;br&gt;React, SASS" style="html=1;dropTarget=0;whiteSpace=wrap;" vertex="1" parent="1">
          <mxGeometry x="460" y="240" width="110" height="70" as="geometry" />
        </mxCell>
        <mxCell id="utmpWp_Bq-xcvvFRlT2Y-11" value="" style="shape=module;jettyWidth=8;jettyHeight=4;" vertex="1" parent="utmpWp_Bq-xcvvFRlT2Y-10">
          <mxGeometry x="1" width="20" height="20" relative="1" as="geometry">
            <mxPoint x="-27" y="7" as="offset" />
          </mxGeometry>
        </mxCell>
        <mxCell id="utmpWp_Bq-xcvvFRlT2Y-13" value="Django" style="html=1;dropTarget=0;whiteSpace=wrap;" vertex="1" parent="1">
          <mxGeometry x="467.5" y="400" width="95" height="60" as="geometry" />
        </mxCell>
        <mxCell id="utmpWp_Bq-xcvvFRlT2Y-14" value="" style="shape=module;jettyWidth=8;jettyHeight=4;" vertex="1" parent="utmpWp_Bq-xcvvFRlT2Y-13">
          <mxGeometry x="1" width="20" height="20" relative="1" as="geometry">
            <mxPoint x="-27" y="7" as="offset" />
          </mxGeometry>
        </mxCell>
        <mxCell id="utmpWp_Bq-xcvvFRlT2Y-15" value="PostgreSQL&lt;br&gt;SQLite&amp;nbsp;" style="html=1;dropTarget=0;whiteSpace=wrap;" vertex="1" parent="1">
          <mxGeometry x="455" y="517.5" width="120" height="75" as="geometry" />
        </mxCell>
        <mxCell id="utmpWp_Bq-xcvvFRlT2Y-16" value="" style="shape=module;jettyWidth=8;jettyHeight=4;" vertex="1" parent="utmpWp_Bq-xcvvFRlT2Y-15">
          <mxGeometry x="1" width="20" height="20" relative="1" as="geometry">
            <mxPoint x="-27" y="7" as="offset" />
          </mxGeometry>
        </mxCell>
        <mxCell id="utmpWp_Bq-xcvvFRlT2Y-18" value="Test:&lt;br&gt;Postman" style="html=1;dropTarget=0;whiteSpace=wrap;" vertex="1" parent="1">
          <mxGeometry x="210" y="410" width="95" height="60" as="geometry" />
        </mxCell>
        <mxCell id="utmpWp_Bq-xcvvFRlT2Y-19" value="" style="shape=module;jettyWidth=8;jettyHeight=4;" vertex="1" parent="utmpWp_Bq-xcvvFRlT2Y-18">
          <mxGeometry x="1" width="20" height="20" relative="1" as="geometry">
            <mxPoint x="-27" y="7" as="offset" />
          </mxGeometry>
        </mxCell>
      </root>
    </mxGraphModel>
  </diagram>
</mxfile>
